<svg width="0" height="0" class="hidden">

    <symbol id="arrow-left" xmlns="http://www.w3.org/2000/svg" viewBox="0 0 14 24" >
        <path d="M0.93934 10.9393C0.353553 11.5251 0.353553 12.4749 0.93934 13.0607L10.4853 22.6066C11.0711 23.1924 12.0208 23.1924 12.6066 22.6066C13.1924 22.0208 13.1924 21.0711 12.6066 20.4853L4.12132 12L12.6066 3.51472C13.1924 2.92893 13.1924 1.97919 12.6066 1.3934C12.0208 0.807612 11.0711 0.807612 10.4853 1.3934L0.93934 10.9393ZM2 13.5L3 13.5L3 10.5L2 10.5L2 13.5Z" ></path>
    </symbol>




    <symbol fill="none" id="search" xmlns="http://www.w3.org/2000/svg" viewBox="0 0 21 21" >
        <path d="M8.13681 1.28311C9.4926 1.28187 10.8183 1.68278 11.9462 2.43512C13.0741 3.18746 13.9536 4.25743 14.4733 5.50967C14.993 6.76191 15.1296 8.14015 14.8658 9.47005C14.6021 10.7999 13.9498 12.0217 12.9916 12.9809C12.0333 13.94 10.8121 14.5934 9.48246 14.8583C8.1528 15.1233 6.77443 14.9879 5.52172 14.4694C4.26901 13.9508 3.19824 13.0724 2.44487 11.9452C1.69149 10.8179 1.28937 9.4926 1.28937 8.1368C1.29759 6.32271 2.02146 4.58516 3.30365 3.3018C4.58583 2.01844 6.32272 1.29299 8.13681 1.28311V1.28311ZM8.13681 0C6.5275 0 4.95433 0.477215 3.61624 1.3713C2.27815 2.26538 1.23524 3.53618 0.619381 5.02298C0.00352566 6.50979 -0.15761 8.14583 0.15635 9.72421C0.47031 11.3026 1.24527 12.7524 2.38322 13.8904C3.52117 15.0283 4.97101 15.8033 6.5494 16.1173C8.12778 16.4312 9.76382 16.2701 11.2506 15.6542C12.7374 15.0384 14.0082 13.9955 14.9023 12.6574C15.7964 11.3193 16.2736 9.74611 16.2736 8.1368C16.2736 5.97879 15.4163 3.90916 13.8904 2.38321C12.3644 0.857268 10.2948 0 8.13681 0Z" fill="white"></path>
        <path d="M19.8225 18.9588L15.2096 14.3145L14.3208 15.197L18.9337 19.8413C18.9917 19.8996 19.0606 19.946 19.1364 19.9778C19.2123 20.0095 19.2937 20.026 19.3759 20.0263C19.4582 20.0266 19.5397 20.0107 19.6157 19.9794C19.6918 19.9482 19.761 19.9024 19.8194 19.8444C19.8778 19.7865 19.9241 19.7176 19.9559 19.6417C19.9876 19.5658 20.0041 19.4845 20.0044 19.4022C20.0047 19.32 19.9888 19.2385 19.9576 19.1624C19.9264 19.0863 19.8805 19.0171 19.8225 18.9588Z" fill="white"></path>
    </symbol>

    <symbol id="Arrow" fill="none" xmlns="http://www.w3.org/2000/svg" viewBox="0 0 31 8" >
        <path d="M30.3536 4.35356C30.5488 4.15829 30.5488 3.84171 30.3536 3.64645L27.1716 0.464468C26.9763 0.269206 26.6597 0.269206 26.4645 0.464468C26.2692 0.659731 26.2692 0.976313 26.4645 1.17158L29.2929 4L26.4645 6.82843C26.2692 7.02369 26.2692 7.34027 26.4645 7.53554C26.6597 7.7308 26.9763 7.7308 27.1716 7.53554L30.3536 4.35356ZM-4.37114e-08 4.5L30 4.5L30 3.5L4.37114e-08 3.5L-4.37114e-08 4.5Z" ></path>
    </symbol>

    <symbol  xmlns="http://www.w3.org/2000/svg" viewBox="0 0 32 27" id="cart">
        <path d="M29.5385 0H2.46154C1.80892 0.000730874 1.18325 0.259569 0.721777 0.719727C0.260308 1.17989 0.000732956 1.80378 0 2.45455V24.5455C0.000732956 25.1962 0.260308 25.8201 0.721777 26.2803C1.18325 26.7404 1.80892 26.9993 2.46154 27H29.5385C30.1911 26.9993 30.8168 26.7404 31.2782 26.2803C31.7397 25.8201 31.9993 25.1962 32 24.5455V2.45455C31.9993 1.80378 31.7397 1.17989 31.2782 0.719727C30.8168 0.259569 30.1911 0.000730874 29.5385 0ZM29.5385 24.5455H2.46154V2.45455H29.5385L29.54 24.5455H29.5385ZM23.3846 7.36364C23.3846 9.31659 22.6066 11.1896 21.2217 12.5705C19.8368 13.9515 17.9585 14.7273 16 14.7273C14.0415 14.7273 12.1632 13.9515 10.7783 12.5705C9.3934 11.1896 8.61539 9.31659 8.61539 7.36364C8.61539 7.03814 8.74506 6.72598 8.97587 6.49582C9.20668 6.26567 9.51973 6.13636 9.84615 6.13636C10.1726 6.13636 10.4856 6.26567 10.7164 6.49582C10.9473 6.72598 11.0769 7.03814 11.0769 7.36364C11.0769 8.66561 11.5956 9.91426 12.5189 10.8349C13.4421 11.7555 14.6943 12.2727 16 12.2727C17.3057 12.2727 18.5579 11.7555 19.4811 10.8349C20.4044 9.91426 20.9231 8.66561 20.9231 7.36364C20.9231 7.03814 21.0527 6.72598 21.2836 6.49582C21.5144 6.26567 21.8274 6.13636 22.1538 6.13636C22.4803 6.13636 22.7933 6.26567 23.0241 6.49582C23.2549 6.72598 23.3846 7.03814 23.3846 7.36364Z" ></path>
    </symbol>

    <symbol  xmlns="http://www.w3.org/2000/svg" viewBox="0 0 15 8" id="arrow-down">
        <path d="M7.00125 7.00125C6.7676 7.00171 6.54116 6.92033 6.36125 6.77125L0.361252 1.77125C0.157036 1.60151 0.0286112 1.3576 0.0042315 1.09318C-0.0201482 0.82875 0.0615137 0.565469 0.231252 0.361252C0.400991 0.157035 0.644902 0.0286112 0.909329 0.00423152C1.17375 -0.0201482 1.43704 0.0615132 1.64125 0.231252L7.00125 4.71125L12.3613 0.391253C12.4635 0.308187 12.5812 0.246155 12.7076 0.208723C12.8339 0.171291 12.9664 0.159198 13.0974 0.173137C13.2285 0.187076 13.3554 0.226773 13.4711 0.289947C13.5867 0.35312 13.6887 0.438526 13.7713 0.541252C13.8628 0.644074 13.9322 0.7647 13.975 0.895574C14.0178 1.02645 14.0331 1.16475 14.0199 1.30181C14.0068 1.43887 13.9655 1.57175 13.8986 1.6921C13.8317 1.81246 13.7407 1.91771 13.6313 2.00125L7.63125 6.83125C7.44617 6.95677 7.22435 7.01662 7.00125 7.00125Z" fill="black"></path>
    </symbol>

    <symbol  id="arrow-nerrow" xmlns="http://www.w3.org/2000/svg" viewBox="0 0 131 8" >
        <path d="M130.354 4.35355C130.549 4.15829 130.549 3.84171 130.354 3.64645L127.172 0.464466C126.976 0.269204 126.66 0.269204 126.464 0.464466C126.269 0.659728 126.269 0.976311 126.464 1.17157L129.293 4L126.464 6.82843C126.269 7.02369 126.269 7.34027 126.464 7.53553C126.66 7.7308 126.976 7.7308 127.172 7.53553L130.354 4.35355ZM0 4.5H130V3.5H0V4.5Z" ></path>
    </symbol>

    <symbol  id="burger" xmlns="http://www.w3.org/2000/svg" xmlns:xlink="http://www.w3.org/1999/xlink" aria-hidden="true" role="img"  preserveAspectRatio="xMidYMid meet" viewBox="0 0 24 24">
        <path d="M4 6h16v2H4zm0 5h16v2H4zm0 5h16v2H4z" />
    </symbol>

    <symbol   id="close" xmlns="http://www.w3.org/2000/svg" xmlns:xlink="http://www.w3.org/1999/xlink" aria-hidden="true" role="img"  preserveAspectRatio="xMidYMid meet" viewBox="0 0 24 24">
        <path d="M15.59 7L12 10.59L8.41 7L7 8.41L10.59 12L7 15.59L8.41 17L12 13.41L15.59 17L17 15.59L13.41 12L17 8.41L15.59 7z" />
    </symbol>


    <symbol id="facebook"  xmlns="http://www.w3.org/2000/svg" viewBox="0 0 24 24" >
        <path fill-rule="evenodd" clip-rule="evenodd" d="M0 12.067C0 18.033 4.333 22.994 10 24V15.333H7V12H10V9.333C10 6.333 11.933 4.667 14.667 4.667C15.533 4.667 16.467 4.8 17.333 4.933V8H15.8C14.333 8 14 8.733 14 9.667V12H17.2L16.667 15.333H14V24C19.667 22.994 24 18.034 24 12.067C24 5.43 18.6 0 12 0C5.4 0 0 5.43 0 12.067Z" ></path>
    </symbol>

    <symbol id="insta" xmlns="http://www.w3.org/2000/svg" viewBox="0 0 24 24" >
        <path fill-rule="evenodd" clip-rule="evenodd" d="M7.05273 0.072C8.33236 0.0130909 8.74036 0 12 0C15.2596 0 15.6676 0.0141818 16.9462 0.072C18.2247 0.129818 19.0975 0.333818 19.8611 0.629455C20.6607 0.931636 21.3862 1.404 21.9862 2.01491C22.5971 2.61382 23.0684 3.33818 23.3695 4.13891C23.6662 4.90255 23.8691 5.77527 23.928 7.05164C23.9869 8.33345 24 8.74145 24 12C24 15.2596 23.9858 15.6676 23.928 16.9473C23.8702 18.2236 23.6662 19.0964 23.3695 19.86C23.0684 20.6608 22.5963 21.3864 21.9862 21.9862C21.3862 22.5971 20.6607 23.0684 19.8611 23.3695C19.0975 23.6662 18.2247 23.8691 16.9484 23.928C15.6676 23.9869 15.2596 24 12 24C8.74036 24 8.33236 23.9858 7.05273 23.928C5.77636 23.8702 4.90364 23.6662 4.14 23.3695C3.33919 23.0683 2.61362 22.5963 2.01382 21.9862C1.40332 21.3869 0.930889 20.6617 0.629455 19.8611C0.333818 19.0975 0.130909 18.2247 0.072 16.9484C0.0130909 15.6665 0 15.2585 0 12C0 8.74036 0.0141818 8.33236 0.072 7.05382C0.129818 5.77527 0.333818 4.90255 0.629455 4.13891C0.931334 3.33827 1.40413 2.61307 2.01491 2.01382C2.61386 1.40346 3.3387 0.931029 4.13891 0.629455C4.90255 0.333818 5.77527 0.130909 7.05164 0.072H7.05273ZM16.8491 2.232C15.5836 2.17418 15.204 2.16218 12 2.16218C8.796 2.16218 8.41636 2.17418 7.15091 2.232C5.98036 2.28545 5.34545 2.48073 4.92218 2.64545C4.36255 2.86364 3.96218 3.12218 3.54218 3.54218C3.14405 3.92951 2.83765 4.40104 2.64545 4.92218C2.48073 5.34545 2.28545 5.98036 2.232 7.15091C2.17418 8.41636 2.16218 8.796 2.16218 12C2.16218 15.204 2.17418 15.5836 2.232 16.8491C2.28545 18.0196 2.48073 18.6545 2.64545 19.0778C2.83745 19.5982 3.144 20.0705 3.54218 20.4578C3.92945 20.856 4.40182 21.1625 4.92218 21.3545C5.34545 21.5193 5.98036 21.7145 7.15091 21.768C8.41636 21.8258 8.79491 21.8378 12 21.8378C15.2051 21.8378 15.5836 21.8258 16.8491 21.768C18.0196 21.7145 18.6545 21.5193 19.0778 21.3545C19.6375 21.1364 20.0378 20.8778 20.4578 20.4578C20.856 20.0705 21.1625 19.5982 21.3545 19.0778C21.5193 18.6545 21.7145 18.0196 21.768 16.8491C21.8258 15.5836 21.8378 15.204 21.8378 12C21.8378 8.796 21.8258 8.41636 21.768 7.15091C21.7145 5.98036 21.5193 5.34545 21.3545 4.92218C21.1364 4.36255 20.8778 3.96218 20.4578 3.54218C20.0705 3.14408 19.5989 2.83768 19.0778 2.64545C18.6545 2.48073 18.0196 2.28545 16.8491 2.232V2.232ZM10.4673 15.6993C11.3233 16.0556 12.2764 16.1037 13.1639 15.8353C14.0514 15.567 14.8182 14.9988 15.3334 14.2279C15.8485 13.457 16.0801 12.5311 15.9884 11.6085C15.8968 10.6858 15.4876 9.82361 14.8309 9.16909C14.4123 8.7507 13.9061 8.43034 13.3487 8.23107C12.7914 8.0318 12.1968 7.95858 11.6078 8.01667C11.0188 8.07477 10.45 8.26274 9.94233 8.56705C9.43468 8.87136 9.00081 9.28445 8.67197 9.77657C8.34312 10.2687 8.12748 10.8276 8.04056 11.413C7.95365 11.9985 7.99762 12.596 8.16932 13.1624C8.34101 13.7288 8.63616 14.2501 9.03351 14.6888C9.43087 15.1275 9.92054 15.4726 10.4673 15.6993ZM7.63855 7.63855C8.2113 7.06579 8.89126 6.61146 9.6396 6.30149C10.3879 5.99151 11.19 5.83197 12 5.83197C12.81 5.83197 13.6121 5.99151 14.3604 6.30148C15.1087 6.61146 15.7887 7.06579 16.3615 7.63855C16.9342 8.2113 17.3885 8.89126 17.6985 9.6396C18.0085 10.3879 18.168 11.19 18.168 12C18.168 12.81 18.0085 13.6121 17.6985 14.3604C17.3885 15.1087 16.9342 15.7887 16.3615 16.3615C15.2047 17.5182 13.6359 18.168 12 18.168C10.3641 18.168 8.79528 17.5182 7.63855 16.3615C6.48182 15.2047 5.83197 13.6359 5.83197 12C5.83197 10.3641 6.48182 8.79528 7.63855 7.63855V7.63855ZM19.536 6.75055C19.6779 6.61666 19.7916 6.45565 19.8702 6.27706C19.9487 6.09847 19.9907 5.90593 19.9935 5.71083C19.9964 5.51574 19.9601 5.32205 19.8867 5.14125C19.8134 4.96044 19.7045 4.79619 19.5665 4.65822C19.4285 4.52026 19.2643 4.41137 19.0835 4.33802C18.9027 4.26467 18.709 4.22834 18.5139 4.23118C18.3188 4.23403 18.1263 4.27599 17.9477 4.35458C17.7691 4.43317 17.6081 4.5468 17.4742 4.68873C17.2138 4.96476 17.0712 5.33141 17.0768 5.71083C17.0823 6.09026 17.2355 6.4526 17.5038 6.72092C17.7721 6.98924 18.1345 7.14243 18.5139 7.14796C18.8933 7.15349 19.26 7.01093 19.536 6.75055V6.75055Z" ></path>
    </symbol>

    <symbol id="pin" xmlns="http://www.w3.org/2000/svg" viewBox="0 0 24 24" >
        <path d="M0.000110216 8.60906C0.000110216 7.57144 0.235811 6.59117 0.70028 5.67625C1.14405 4.7876 1.80336 3.972 2.64308 3.27291C3.48109 2.583 4.44007 1.98642 5.49229 1.50042C6.57186 0.997818 7.74063 0.61864 8.96194 0.374776C10.198 0.125002 11.4708 -0.000962103 12.7488 5.5326e-06C14.7227 5.5326e-06 16.5598 0.321428 18.2635 0.961606C19.9448 1.59011 21.376 2.55464 22.4073 3.75438C23.4714 4.97472 24 6.3551 24 7.8942C24 8.81712 23.8822 9.72004 23.6413 10.6029C23.4047 11.4854 23.0287 12.3422 22.5217 13.1543C22.0384 13.9405 21.4064 14.6672 20.6465 15.3109C19.8827 15.9444 18.9576 16.4501 17.929 16.7967C16.8122 17.1733 15.6041 17.3629 14.3848 17.3528C13.5373 17.3528 12.6916 17.1994 11.8562 16.8914C11.0209 16.5846 10.4212 16.1632 10.0607 15.623C9.93421 15.9978 9.7609 16.5393 9.5304 17.2475C9.30856 17.9543 9.15951 18.4104 9.09366 18.6172C9.02433 18.8226 8.89608 19.1653 8.70891 19.6401C8.58197 19.9913 8.41913 20.3343 8.22191 20.6657L7.62573 21.5647C7.3679 21.9504 7.07967 22.3236 6.76264 22.6823C6.44895 23.0317 6.06074 23.4492 5.59801 23.9293L5.33977 24L5.1682 23.856C4.98276 22.3449 4.88744 21.4406 4.88744 21.1419C4.88744 20.2576 5.02435 19.2654 5.29471 18.1637C5.55988 17.0634 5.97929 15.6804 6.54254 14.0172C7.1058 12.3554 7.42815 11.3778 7.51481 11.0884C7.11793 10.4656 6.91689 9.65202 6.91689 8.65174C6.91689 7.85285 7.24098 7.10464 7.89089 6.40045C8.54253 5.69892 9.36575 5.34816 10.364 5.34816C11.1283 5.34816 11.721 5.54288 12.1456 5.93365C12.572 6.32309 12.7799 6.8139 12.7799 7.41273C12.7799 8.04757 12.5061 8.96649 11.955 10.1682C11.4039 11.3712 11.13 12.2687 11.13 12.8649C11.13 13.4691 11.4108 13.9746 11.9723 14.3707C12.5265 14.767 13.2593 14.9817 14.0156 14.9695C14.7019 14.9695 15.338 14.8495 15.929 14.6081C16.5107 14.3737 17.0143 14.0392 17.4004 13.6305C18.2413 12.7426 18.8408 11.7333 19.1629 10.663C19.3293 10.1001 19.4576 9.56533 19.5373 9.06252C19.6222 8.55705 19.6586 8.07958 19.6586 7.62612C19.6586 5.96299 18.9723 4.66663 17.6084 3.73838C16.2375 2.81012 14.4524 2.34866 12.2566 2.34866C9.75916 2.34866 7.67079 2.97016 5.99835 4.21718C4.32418 5.46019 3.4819 7.04063 3.4819 8.95716C3.4819 9.37994 3.56509 9.78806 3.7228 10.1828C3.87704 10.5763 4.04515 10.8897 4.22713 11.1218C4.40737 11.3498 4.57721 11.5726 4.73146 11.7779C4.88744 11.9833 4.96889 12.13 4.96889 12.2181C4.96889 12.4875 4.87704 12.8382 4.6916 13.2717C4.49922 13.7051 4.27219 13.9212 3.99836 13.9212C3.97236 13.9212 3.86491 13.9065 3.67774 13.8759C3.0295 13.7269 2.44408 13.4485 1.98104 13.069C1.4896 12.6756 1.10176 12.2127 0.838927 11.7059C0.576845 11.2009 0.372717 10.6792 0.228879 10.1468C0.0734749 9.64305 -0.00332326 9.12682 0.000110216 8.60906Z" ></path>
    </symbol>

    <symbol  id="facebook-squ" fill="none" xmlns="http://www.w3.org/2000/svg" viewBox="0 0 30 30">
        <path d="M1.66875 0H28.35C29.2688 0 30 0.73125 30 1.65V28.35C30 29.25 29.2688 30 28.35 30H20.7V18.375H24.6L25.1813 13.8563H20.7V10.9688C20.7 9.65625 21.075 8.75625 22.95 8.75625H25.35V4.70625C24.9375 4.65 23.5125 4.5375 21.8625 4.5375C18.3937 4.5375 16.0312 6.6375 16.0312 10.5188V13.8563H12.1125V18.375H16.0312V30H1.66875C1.2294 30 0.807763 29.8268 0.495345 29.5179C0.182928 29.209 0.00493652 28.7893 0 28.35V1.65C0 0.73125 0.75 0 1.66875 0Z" fill="white"></path>
    </symbol>


    <symbol id="google" fill="none" xmlns="http://www.w3.org/2000/svg" viewBox="0 0 30 30" >
        <path d="M29.7082 12.0622H28.5V12H15V18H23.4772C22.2405 21.4927 18.9172 24 15 24C10.0297 24 6 19.9702 6 15C6 10.0297 10.0297 6 15 6C17.2942 6 19.3815 6.8655 20.9707 8.27925L25.2135 4.0365C22.5345 1.53975 18.951 0 15 0C6.71625 0 0 6.71625 0 15C0 23.2837 6.71625 30 15 30C23.2837 30 30 23.2837 30 15C30 13.9942 29.8965 13.0125 29.7082 12.0622Z" fill="#FFC107"></path>
        <path d="M1.72949 8.01825L6.65774 11.6325C7.99124 8.331 11.2207 6 15 6C17.2942 6 19.3815 6.8655 20.9707 8.27925L25.2135 4.0365C22.5345 1.53975 18.951 0 15 0C9.23849 0 4.24199 3.25275 1.72949 8.01825Z" fill="#FF3D00"></path>
        <path d="M15.0002 30C18.8747 30 22.3952 28.5173 25.057 26.106L20.4145 22.1775C18.8579 23.3613 16.9558 24.0016 15.0002 24C11.0987 24 7.78598 21.5123 6.53798 18.0405L1.64648 21.8093C4.12898 26.667 9.17048 30 15.0002 30Z" fill="#4CAF50"></path>
        <path d="M29.7082 12.0622H28.5V12H15V18H23.4772C22.8857 19.6623 21.82 21.1149 20.412 22.1782L20.4142 22.1767L25.0567 26.1052C24.7282 26.4037 30 22.5 30 15C30 13.9942 29.8965 13.0125 29.7082 12.0622Z" fill="#1976D2"></path>
    </symbol>


    <symbol id="facebook-blue" fill="none" xmlns="http://www.w3.org/2000/svg" viewBox="0 0 30 30" >
        <path d="M1.66875 0H28.35C29.2688 0 30 0.73125 30 1.65V28.35C30 29.25 29.2688 30 28.35 30H20.7V18.375H24.6L25.1813 13.8563H20.7V10.9688C20.7 9.65625 21.075 8.75625 22.95 8.75625H25.35V4.70625C24.9375 4.65 23.5125 4.5375 21.8625 4.5375C18.3937 4.5375 16.0312 6.6375 16.0312 10.5188V13.8563H12.1125V18.375H16.0312V30H1.66875C1.2294 30 0.807763 29.8268 0.495345 29.5179C0.182928 29.209 0.00493652 28.7893 0 28.35V1.65C0 0.73125 0.75 0 1.66875 0Z" fill="#3B5998"></path>
    </symbol>


    <symbol id="photo" fill="none" xmlns="http://www.w3.org/2000/svg" viewBox="0 0 20 18" >
        <path d="M9.9998 13.2C11.7671 13.2 13.1998 11.7674 13.1998 10C13.1998 8.23274 11.7671 6.80005 9.9998 6.80005C8.23249 6.80005 6.7998 8.23274 6.7998 10C6.7998 11.7674 8.23249 13.2 9.9998 13.2Z" fill="white"></path>
        <path d="M7 0L5.17 2H2C0.9 2 0 2.9 0 4V16C0 17.1 0.9 18 2 18H18C19.1 18 20 17.1 20 16V4C20 2.9 19.1 2 18 2H14.83L13 0H7ZM10 15C7.24 15 5 12.76 5 10C5 7.24 7.24 5 10 5C12.76 5 15 7.24 15 10C15 12.76 12.76 15 10 15Z" fill="white"></path>
    </symbol>

    <symbol id="avatar" xmlns="http://www.w3.org/2000/svg" viewBox="0 0 110 110" >
        <path d="M55 0C25.1845 0 0 25.1845 0 55C0 84.8155 25.1845 110 55 110C84.8155 110 110 84.8155 110 55C110 25.1845 84.8155 0 55 0ZM55 27.5C64.4985 27.5 71.5 34.496 71.5 44C71.5 53.504 64.4985 60.5 55 60.5C45.507 60.5 38.5 53.504 38.5 44C38.5 34.496 45.507 27.5 55 27.5ZM26.917 81.246C31.8505 73.986 40.0785 69.146 49.5 69.146H60.5C69.927 69.146 78.1495 73.986 83.083 81.246C76.054 88.77 66.0825 93.5 55 93.5C43.9175 93.5 33.946 88.77 26.917 81.246Z" fill="white"></path>
    </symbol>


    <symbol id="close" fill="none" xmlns="http://www.w3.org/2000/svg" viewBox="0 0 17 17" >
        <path d="M15.2132 15.2132L8.14214 8.14215M8.14214 8.14215L1.07107 1.07108M8.14214 8.14215L15.2132 1.07108M8.14214 8.14215L1.07107 15.2132" stroke="#7B6492" stroke-width="2" stroke-linecap="round"></path>
    </symbol>








</svg>