<svg width="0" height="0" class="hidden">



    <symbol fill="none" xmlns="http://www.w3.org/2000/svg" viewBox="0 0 32 27" id="cart">
        <path d="M29.5385 0H2.46154C1.80892 0.000730874 1.18325 0.259569 0.721777 0.719727C0.260308 1.17989 0.000732956 1.80378 0 2.45455V24.5455C0.000732956 25.1962 0.260308 25.8201 0.721777 26.2803C1.18325 26.7404 1.80892 26.9993 2.46154 27H29.5385C30.1911 26.9993 30.8168 26.7404 31.2782 26.2803C31.7397 25.8201 31.9993 25.1962 32 24.5455V2.45455C31.9993 1.80378 31.7397 1.17989 31.2782 0.719727C30.8168 0.259569 30.1911 0.000730874 29.5385 0ZM29.5385 24.5455H2.46154V2.45455H29.5385L29.54 24.5455H29.5385ZM23.3846 7.36364C23.3846 9.31659 22.6066 11.1896 21.2217 12.5705C19.8368 13.9515 17.9585 14.7273 16 14.7273C14.0415 14.7273 12.1632 13.9515 10.7783 12.5705C9.3934 11.1896 8.61539 9.31659 8.61539 7.36364C8.61539 7.03814 8.74506 6.72598 8.97587 6.49582C9.20668 6.26567 9.51973 6.13636 9.84615 6.13636C10.1726 6.13636 10.4856 6.26567 10.7164 6.49582C10.9473 6.72598 11.0769 7.03814 11.0769 7.36364C11.0769 8.66561 11.5956 9.91426 12.5189 10.8349C13.4421 11.7555 14.6943 12.2727 16 12.2727C17.3057 12.2727 18.5579 11.7555 19.4811 10.8349C20.4044 9.91426 20.9231 8.66561 20.9231 7.36364C20.9231 7.03814 21.0527 6.72598 21.2836 6.49582C21.5144 6.26567 21.8274 6.13636 22.1538 6.13636C22.4803 6.13636 22.7933 6.26567 23.0241 6.49582C23.2549 6.72598 23.3846 7.03814 23.3846 7.36364Z" fill="white"></path>
    </symbol>

<!-- <symbol fill="none" xmlns="http://www.w3.org/2000/svg" viewBox="0 0 22 22" id="clock">-->
<!--    <path d="M10.989 0C4.917 0 0 4.928 0 11s4.917 11 10.989 11C17.072 22 22 17.072 22 11S17.072 0 10.989 0zM11 19.8A8.798 8.798 0 012.2 11c0-4.862 3.938-8.8 8.8-8.8s8.8 3.938 8.8 8.8-3.938 8.8-8.8 8.8zm.55-14.3H9.9v6.6l5.775 3.465.825-1.353-4.95-2.937V5.5z" fill="#000"></path>-->
<!--  </symbol>-->


<!--<symbol id="search" xmlns="http://www.w3.org/2000/svg" xmlns:xlink="http://www.w3.org/1999/xlink" aria-hidden="true" role="img"  preserveAspectRatio="xMidYMid meet" viewBox="0 0 24 24">-->

<!--<path d="M21 21l-4.486-4.494M19 10.5a8.5 8.5 0 1 1-17 0a8.5 8.5 0 0 1 17 0z"  stroke-width="2" stroke-linecap="round"/>-->

<!--</symbol>-->

<!--<symbol  id="burger" xmlns="http://www.w3.org/2000/svg" xmlns:xlink="http://www.w3.org/1999/xlink" aria-hidden="true" role="img"  preserveAspectRatio="xMidYMid meet" viewBox="0 0 24 24">-->
<!--<path d="M4 6h16v2H4zm0 5h16v2H4zm0 5h16v2H4z" />-->
<!--</symbol>-->


<!--<symbol   id="close" xmlns="http://www.w3.org/2000/svg" xmlns:xlink="http://www.w3.org/1999/xlink" aria-hidden="true" role="img"  preserveAspectRatio="xMidYMid meet" viewBox="0 0 24 24">-->
<!--<path d="M15.59 7L12 10.59L8.41 7L7 8.41L10.59 12L7 15.59L8.41 17L12 13.41L15.59 17L17 15.59L13.41 12L17 8.41L15.59 7z" />-->
<!--</symbol>-->

<!--<symbol id="arrow-left" fill="none" xmlns="http://www.w3.org/2000/svg" viewBox="0 0 16 27" >-->
<!--        <path d="M13.9995 25L3 13.6857L14 0.999999" ></path>-->
<!--</symbol>-->

<!--<symbol id="arrow-right" fill="none" xmlns="http://www.w3.org/2000/svg" viewBox="0 0 16 27" >-->
<!--        <path d="M2.00051 25L13 13.6857L2 0.999999" ></path>-->
<!--</symbol>-->

<!--<symbol fill="none" xmlns="http://www.w3.org/2000/svg" viewBox="0 0 19 12" id="arrow-down">-->
<!--        <path d="M17 2L9.45714 8.99968L2 2"  stroke-width="3"></path>-->
<!--</symbol>-->







</svg>